<svg width="1562" height="591" viewBox="0 0 1562 591" fill="none" xmlns="http://www.w3.org/2000/svg">
<path d="M1090.38 170.06C1089.11 169.858 1088.17 168.866 1088.02 167.555C1087.86 166.244 1088.52 164.878 1089.68 164.107C1090.34 163.671 1091 163.311 1091.59 162.993C1093.34 162.042 1093.68 161.76 1093.85 161.102C1094.02 160.443 1093.85 160.081 1092.7 158.671C1091.41 157.082 1089.46 154.681 1090.48 150.725C1091.49 146.77 1094.48 145.151 1096.46 144.079C1098.21 143.128 1098.55 142.845 1098.72 142.187C1098.89 141.529 1098.72 141.165 1097.57 139.752C1096.28 138.163 1094.33 135.761 1095.34 131.806C1096.36 127.851 1099.35 126.23 1101.33 125.158C1101.73 124.939 1102.11 124.732 1102.45 124.526C1104.04 123.541 1105.97 123.981 1106.76 125.508C1107.55 127.036 1106.9 129.073 1105.31 130.058C1104.8 130.375 1104.31 130.64 1103.83 130.899C1102.08 131.85 1101.74 132.132 1101.57 132.794C1101.4 133.455 1101.57 133.816 1102.71 135.229C1104.01 136.818 1105.96 139.22 1104.94 143.175C1103.92 147.13 1100.94 148.749 1098.96 149.822C1097.21 150.773 1096.87 151.056 1096.7 151.714C1096.53 152.371 1096.7 152.735 1097.85 154.145C1099.14 155.733 1101.09 158.135 1100.07 162.089C1099.06 166.044 1096.07 167.664 1094.09 168.737C1093.6 169.004 1093.13 169.257 1092.75 169.508C1092.03 169.99 1091.18 170.187 1090.38 170.06Z" fill="#07DFE0"/>
<path d="M1111.29 451.362C1110.6 449.901 1110.78 448.31 1111.76 447.276C1112.75 446.241 1114.35 445.946 1115.89 446.519L1124.43 449.699L1128.1 442.63C1128.92 441.067 1130.85 440.451 1132.74 441.153L1141.29 444.333L1144.96 437.264C1145.78 435.701 1147.71 435.084 1149.6 435.787L1161.39 440.174C1162.82 440.704 1163.96 441.894 1164.38 443.297C1164.81 444.699 1164.46 446.1 1163.46 446.973C1162.46 447.845 1160.97 448.056 1159.54 447.526L1151 444.348L1147.32 451.418C1146.5 452.981 1144.57 453.598 1142.68 452.895L1134.13 449.716L1130.46 456.784C1129.65 458.347 1127.71 458.964 1125.82 458.261L1114.03 453.872C1112.84 453.425 1111.83 452.503 1111.29 451.362Z" fill="#FF5858"/>
<path d="M1165.49 288.387C1163.61 287.826 1162.78 285.829 1163.65 283.91L1175.06 258.698C1175.93 256.765 1178.19 255.638 1180.1 256.182L1205.03 263.28C1206.43 263.678 1207.31 264.891 1207.25 266.352C1207.2 267.813 1206.22 269.235 1204.78 269.955L1168.44 288.07C1167.48 288.548 1166.42 288.662 1165.49 288.387ZM1180.4 264.172L1174.4 277.428L1193.51 267.904L1180.4 264.172Z" fill="#5B3DD1"/>
<path d="M412.146 436.003C410.969 437.033 409.222 437.378 407.656 436.889C406.09 436.401 404.984 435.165 404.814 433.715L403.874 425.664L394.689 424.838C392.657 424.655 391.051 423.247 390.842 421.465L389.9 413.411L380.714 412.584C378.682 412.402 377.076 410.993 376.867 409.211L375.566 398.097C375.409 396.754 376.081 395.44 377.328 394.649C378.576 393.859 380.21 393.712 381.614 394.264C383.019 394.816 383.981 395.983 384.139 397.326L385.085 405.383L394.274 406.213C396.306 406.396 397.912 407.804 398.121 409.585L399.063 417.639L408.248 418.465C410.28 418.648 411.887 420.056 412.095 421.838L413.392 432.949C413.522 434.08 413.065 435.202 412.146 436.003Z" fill="#9C5CFF"/>
<path d="M465.738 299.536C464.968 300.31 463.896 300.798 462.756 300.892C461.616 300.986 460.502 300.677 459.66 300.035C455.101 296.557 448.025 297.138 443.857 301.333C439.689 305.527 440.006 311.746 444.565 315.223C446.319 316.561 446.441 318.952 444.838 320.566C443.234 322.179 440.513 322.402 438.76 321.065C430.693 314.913 430.132 303.91 437.507 296.489C444.881 289.069 457.399 288.041 465.466 294.193C466.308 294.835 466.81 295.759 466.861 296.761C466.912 297.763 466.508 298.761 465.738 299.536Z" fill="#FFCD45"/>
<path d="M365.174 179.009C364.332 178.833 363.637 178.307 363.242 177.546C362.848 176.784 362.786 175.85 363.07 174.948L370.774 150.48C371.365 148.603 373.265 147.377 375.018 147.742C376.771 148.107 377.713 149.924 377.122 151.801L369.418 176.269C369.135 177.171 368.528 177.966 367.732 178.48C366.936 178.994 366.016 179.184 365.174 179.009Z" fill="#3798FA"/>
<path d="M1301.8 467.44C1315.38 467.44 1326.39 456.442 1326.39 442.875C1326.39 429.308 1315.38 418.31 1301.8 418.31C1288.22 418.31 1277.21 429.308 1277.21 442.875C1277.21 456.442 1288.22 467.44 1301.8 467.44Z" fill="#FFF7F1"/>
<path d="M1339.84 412.579L1322.11 398.003C1320.18 396.437 1317.77 395.594 1315.28 395.621H1202.42C1197.72 395.621 1193.21 393.755 1189.88 390.433C1186.56 387.112 1184.69 382.607 1184.69 377.91V314.15C1184.69 309.453 1186.56 304.948 1189.88 301.626C1193.21 298.305 1197.72 296.439 1202.42 296.439H1325.93C1330.63 296.439 1335.14 298.305 1338.47 301.626C1341.8 304.948 1343.66 309.453 1343.66 314.15V410.675C1343.66 411.118 1343.54 411.553 1343.31 411.93C1343.07 412.307 1342.74 412.611 1342.34 412.809C1341.95 413.007 1341.5 413.09 1341.06 413.049C1340.62 413.009 1340.2 412.846 1339.84 412.579Z" fill="white"/>
<path d="M1261.12 317.497H1205.77C1203.83 317.497 1202.26 319.068 1202.26 321.004V321.013C1202.26 322.95 1203.83 324.52 1205.77 324.52H1261.12C1263.06 324.52 1264.63 322.95 1264.63 321.013V321.004C1264.63 319.068 1263.06 317.497 1261.12 317.497Z" fill="#FFB6CB"/>
<path d="M1295.09 317.497H1273.12C1271.18 317.497 1269.61 319.068 1269.61 321.004V321.013C1269.61 322.95 1271.18 324.52 1273.12 324.52H1295.09C1297.03 324.52 1298.6 322.95 1298.6 321.013V321.004C1298.6 319.068 1297.03 317.497 1295.09 317.497Z" fill="#FFB6CB"/>
<path d="M1320.56 317.497H1306.79C1304.85 317.497 1303.28 319.068 1303.28 321.004V321.013C1303.28 322.95 1304.85 324.52 1306.79 324.52H1320.56C1322.5 324.52 1324.07 322.95 1324.07 321.013V321.004C1324.07 319.068 1322.5 317.497 1320.56 317.497Z" fill="#FFB6CB"/>
<path d="M1277.8 333.881H1205.77C1203.83 333.881 1202.26 335.451 1202.26 337.388V337.397C1202.26 339.334 1203.83 340.904 1205.77 340.904H1277.8C1279.74 340.904 1281.31 339.334 1281.31 337.397V337.388C1281.31 335.451 1279.74 333.881 1277.8 333.881Z" fill="#E5EAF6"/>
<path d="M1320.56 333.881H1290.98C1289.04 333.881 1287.47 335.451 1287.47 337.388V337.397C1287.47 339.334 1289.04 340.904 1290.98 340.904H1320.56C1322.5 340.904 1324.07 339.334 1324.07 337.397V337.388C1324.07 335.451 1322.5 333.881 1320.56 333.881Z" fill="#E5EAF6"/>
<path d="M1260.92 357.277H1320.56C1322.5 357.277 1324.07 355.707 1324.07 353.771V353.762C1324.07 351.825 1322.5 350.255 1320.56 350.255H1260.92C1258.98 350.255 1257.41 351.825 1257.41 353.762V353.771C1257.41 355.707 1258.98 357.277 1260.92 357.277Z" fill="#6AD5E1"/>
<path d="M1228.89 357.277H1248.91C1250.85 357.277 1252.42 355.707 1252.42 353.771V353.762C1252.42 351.825 1250.85 350.255 1248.91 350.255H1228.89C1226.96 350.255 1225.38 351.825 1225.38 353.762V353.771C1225.38 355.707 1226.96 357.277 1228.89 357.277Z" fill="#6AD5E1"/>
<path d="M1205.76 357.277H1217.19C1219.13 357.277 1220.7 355.707 1220.7 353.771V353.762C1220.7 351.825 1219.13 350.255 1217.19 350.255H1205.76C1203.83 350.255 1202.25 351.825 1202.25 353.762V353.771C1202.25 355.707 1203.83 357.277 1205.76 357.277Z" fill="#6AD5E1"/>
<path d="M1252.14 366.638H1205.77C1203.83 366.638 1202.26 368.208 1202.26 370.144V370.153C1202.26 372.09 1203.83 373.66 1205.77 373.66H1252.14C1254.08 373.66 1255.65 372.09 1255.65 370.153V370.144C1255.65 368.208 1254.08 366.638 1252.14 366.638Z" fill="#E5EAF6"/>
<path d="M1290.4 366.638H1264.14C1262.2 366.638 1260.63 368.208 1260.63 370.144V370.153C1260.63 372.09 1262.2 373.66 1264.14 373.66H1290.4C1292.34 373.66 1293.91 372.09 1293.91 370.153V370.144C1293.91 368.208 1292.34 366.638 1290.4 366.638Z" fill="#E5EAF6"/>
<path d="M1320.56 366.638H1302.11C1300.17 366.638 1298.6 368.208 1298.6 370.144V370.153C1298.6 372.09 1300.17 373.66 1302.11 373.66H1320.56C1322.5 373.66 1324.07 372.09 1324.07 370.153V370.144C1324.07 368.208 1322.5 366.638 1320.56 366.638Z" fill="#E5EAF6"/>
<path d="M1301.8 429.928C1304.36 429.928 1306.87 430.687 1309 432.11C1311.13 433.533 1312.79 435.555 1313.77 437.92C1314.76 440.286 1315.01 442.889 1314.51 445.401C1314.01 447.912 1312.78 450.219 1310.96 452.029C1309.15 453.84 1306.84 455.073 1304.33 455.573C1301.81 456.072 1299.21 455.816 1296.84 454.836C1294.47 453.856 1292.45 452.197 1291.02 450.068C1289.6 447.938 1288.84 445.435 1288.84 442.875C1288.83 441.174 1289.17 439.489 1289.82 437.917C1290.47 436.346 1291.42 434.917 1292.63 433.715C1293.83 432.512 1295.26 431.559 1296.84 430.909C1298.41 430.259 1300.1 429.926 1301.8 429.928ZM1301.8 428.52C1298.96 428.52 1296.18 429.362 1293.81 430.939C1291.45 432.517 1289.61 434.758 1288.52 437.381C1287.43 440.004 1287.15 442.891 1287.7 445.675C1288.26 448.46 1289.63 451.018 1291.64 453.025C1293.65 455.033 1296.21 456.4 1299 456.954C1301.78 457.508 1304.67 457.223 1307.3 456.137C1309.92 455.05 1312.17 453.21 1313.75 450.85C1315.33 448.489 1316.17 445.714 1316.17 442.875C1316.17 439.069 1314.65 435.421 1311.96 432.73C1309.26 430.039 1305.61 428.525 1301.8 428.52Z" fill="#FF92AF"/>
<path d="M1296.9 437.243C1297.08 437.243 1297.26 437.316 1297.39 437.448C1297.52 437.579 1297.6 437.757 1297.6 437.942C1297.6 438.128 1297.52 438.306 1297.39 438.437C1297.26 438.568 1297.08 438.642 1296.9 438.642C1296.71 438.642 1296.53 438.568 1296.4 438.437C1296.27 438.306 1296.2 438.128 1296.2 437.942C1296.2 437.757 1296.27 437.579 1296.4 437.448C1296.53 437.316 1296.71 437.243 1296.9 437.243ZM1296.9 435.843C1296.48 435.843 1296.07 435.967 1295.73 436.197C1295.38 436.428 1295.11 436.756 1294.95 437.139C1294.8 437.523 1294.75 437.945 1294.84 438.352C1294.92 438.759 1295.12 439.133 1295.41 439.426C1295.7 439.72 1296.08 439.92 1296.49 440.001C1296.89 440.082 1297.32 440.04 1297.7 439.881C1298.08 439.722 1298.41 439.453 1298.64 439.108C1298.87 438.763 1299 438.357 1299 437.942C1298.99 437.391 1298.76 436.865 1298.37 436.478C1297.98 436.09 1297.45 435.872 1296.9 435.87V435.843Z" fill="#FF92AF"/>
<path d="M1293.32 443.564C1293.22 443.574 1293.12 443.605 1293.03 443.657C1292.94 443.709 1292.87 443.779 1292.81 443.864C1292.75 443.948 1292.71 444.045 1292.7 444.146C1292.68 444.247 1292.68 444.351 1292.71 444.45C1293.7 447.939 1296.91 451.641 1301.8 451.614C1306.68 451.588 1309.91 447.939 1310.89 444.45C1310.91 444.361 1310.92 444.268 1310.91 444.176C1310.9 444.085 1310.87 443.996 1310.82 443.915C1310.78 443.835 1310.72 443.764 1310.64 443.707C1310.57 443.649 1310.49 443.607 1310.4 443.582C1310.31 443.557 1310.22 443.55 1310.12 443.561C1310.03 443.572 1309.94 443.601 1309.86 443.646C1309.78 443.691 1309.71 443.752 1309.65 443.825C1309.6 443.897 1309.56 443.98 1309.53 444.069C1308.7 447.045 1305.98 450.268 1301.8 450.215C1297.61 450.162 1294.9 447.045 1294.07 444.069C1294.02 443.91 1293.93 443.77 1293.79 443.676C1293.65 443.582 1293.49 443.539 1293.32 443.556V443.564Z" fill="#FF92AF"/>
<path d="M1306.7 437.243C1306.52 437.243 1306.34 437.316 1306.21 437.448C1306.08 437.579 1306 437.757 1306 437.942C1306 438.128 1306.08 438.306 1306.21 438.437C1306.34 438.568 1306.52 438.642 1306.7 438.642C1306.89 438.642 1307.07 438.568 1307.2 438.437C1307.33 438.306 1307.4 438.128 1307.4 437.942C1307.4 437.757 1307.33 437.579 1307.2 437.448C1307.07 437.316 1306.89 437.243 1306.7 437.243ZM1306.7 435.843C1307.12 435.843 1307.52 435.967 1307.87 436.197C1308.21 436.428 1308.48 436.756 1308.64 437.139C1308.8 437.523 1308.84 437.945 1308.76 438.352C1308.68 438.759 1308.48 439.133 1308.19 439.426C1307.89 439.72 1307.52 439.92 1307.11 440.001C1306.7 440.082 1306.28 440.04 1305.9 439.881C1305.51 439.722 1305.19 439.453 1304.95 439.108C1304.72 438.763 1304.6 438.357 1304.6 437.942C1304.61 437.391 1304.84 436.865 1305.23 436.478C1305.62 436.09 1306.15 435.872 1306.7 435.87V435.843Z" fill="#FF92AF"/>
<path d="M345.076 220.439H234.924C226.129 220.439 219 227.54 219 236.299V347.579C219 356.338 226.129 363.439 234.924 363.439H345.076C353.871 363.439 361 356.338 361 347.579V236.299C361 227.54 353.871 220.439 345.076 220.439Z" fill="white"/>
<path d="M320.745 332.093H259.247C257.506 332.093 256.094 333.499 256.094 335.233V335.241C256.094 336.976 257.506 338.381 259.247 338.381H320.745C322.486 338.381 323.898 336.976 323.898 335.241V335.233C323.898 333.499 322.486 332.093 320.745 332.093Z" fill="#F3F5FB"/>
<path d="M311.063 300.635H268.929C267.174 300.635 265.752 302.052 265.752 303.799V306.376C265.752 308.124 267.174 309.54 268.929 309.54H311.063C312.817 309.54 314.24 308.124 314.24 306.376V303.799C314.24 302.052 312.817 300.635 311.063 300.635Z" fill="#E5EAF6"/>
<path d="M327.115 319.548H252.878C251.137 319.548 249.725 320.954 249.725 322.688V322.696C249.725 324.431 251.137 325.836 252.878 325.836H327.115C328.856 325.836 330.267 324.431 330.267 322.696V322.688C330.267 320.954 328.856 319.548 327.115 319.548Z" fill="#F3F5FB"/>
<path d="M289.996 282.308C302.194 282.308 312.082 272.46 312.082 260.311C312.082 248.162 302.194 238.313 289.996 238.313C277.798 238.313 267.91 248.162 267.91 260.311C267.91 272.46 277.798 282.308 289.996 282.308Z" fill="#DCF4F7"/>
<path d="M297.544 274.069L296.174 269.906C296.039 267.435 295.7 264.979 295.163 262.563C295.163 261.77 295.06 259.573 294.956 258.923C294.961 258.886 294.961 258.849 294.956 258.812C295.545 256.917 297.114 252.317 297.241 252.159C297.369 252 297.146 251.524 296.771 251.524C295.867 251.725 295.055 252.219 294.462 252.928C294.63 249.51 295.028 246.481 295.028 246.322C295.028 246.164 294.94 245.609 294.63 245.609C293.458 246.115 292.516 247.036 291.986 248.194L291.039 244.776C291.039 244.586 290.896 244.316 290.681 244.316C289.224 244.316 288.969 247.068 288.969 247.639C288.969 247.9 289.351 250.081 289.765 252.397L289.829 252.73L289.972 253.523L290.227 254.918L290.434 255.894C290.529 256.385 290.617 256.829 290.697 257.202V257.345C289.549 256.477 288.326 255.713 287.042 255.061C286.684 255.061 280.354 258.233 279.407 259.422C279.215 259.422 278.531 259.644 278.531 259.874C278.531 260.104 281.827 265.98 282.44 266.536C283.053 267.091 286.946 270.31 286.946 270.31C287.114 271.024 288.38 275.068 288.348 275.766H297.902L297.544 274.069ZM294.462 252.952C294.462 253.435 294.415 255.331 294.399 256.282C294.383 255.156 294.415 254.022 294.462 252.952ZM289.908 262.206C289.908 262.333 286.477 264.839 285.927 264.839C285.378 264.839 282.599 260.612 281.23 259.962C282.567 260.255 286.286 258.376 286.445 258.376C286.604 258.376 289.415 260.358 289.55 260.485C289.747 261.04 289.868 261.619 289.908 262.206Z" fill="#FCCB5B"/>
<path d="M291.039 244.776C291.039 244.974 294.869 258.257 294.964 258.923" stroke="#FF7F9A" stroke-width="0.4" stroke-miterlimit="10"/>
<path d="M279.462 259.414C279.773 259.557 281.158 259.954 281.325 260.009" stroke="#FF7F9A" stroke-width="0.4" stroke-miterlimit="10"/>
<path d="M297.918 275.759L297.56 274.07C297.023 272.71 296.566 271.32 296.19 269.907C296.19 269.328 295.697 261.588 294.001 259.899C291.896 258.031 289.585 256.405 287.114 255.054C286.755 255.054 280.426 258.226 279.478 259.415C279.287 259.415 278.603 259.637 278.603 259.867C278.603 260.097 281.899 265.973 282.512 266.529C283.125 267.084 287.018 270.303 287.018 270.303C287.185 271.017 288.451 275.061 288.42 275.759M297.544 274.07C297.007 272.71 296.55 271.32 296.174 269.907L297.544 274.07ZM281.198 259.963C282.536 260.256 286.254 258.377 286.413 258.377C286.572 258.377 289.383 260.359 289.518 260.486C289.723 261.029 289.855 261.597 289.908 262.175C289.908 262.302 286.477 264.808 285.927 264.808C285.378 264.808 282.568 260.613 281.198 259.963Z" stroke="#FF7F9A" stroke-width="0.4" stroke-miterlimit="10"/>
<path d="M290.752 257.329C290.195 254.76 288.969 248.106 288.969 247.639C288.969 247.171 289.224 244.316 290.681 244.316C290.896 244.316 291.023 244.586 291.039 244.776C291.055 244.966 294.869 258.257 294.964 258.923C295.06 259.589 295.163 261.754 295.171 262.563" stroke="#FF7F9A" stroke-width="0.4" stroke-miterlimit="10"/>
<path d="M291.986 248.194C292.511 247.022 293.457 246.089 294.638 245.577C294.948 245.577 295.036 246.053 295.036 246.291C294.612 249.787 294.407 253.307 294.423 256.829" stroke="#FF7F9A" stroke-width="0.4" stroke-miterlimit="10"/>
<path d="M294.463 252.896C295.056 252.187 295.868 251.694 296.772 251.492C297.146 251.492 297.401 251.889 297.242 252.127C297.082 252.365 295.546 256.885 294.941 258.82" stroke="#FF7F9A" stroke-width="0.4" stroke-miterlimit="10"/>
</svg>
