<svg width="999" height="500" viewBox="0 0 999 500" fill="none" xmlns="http://www.w3.org/2000/svg">
<path d="M250.5 500C388.298 500 500 388.302 500 250.506C500 112.709 388.298 1 250.5 1C112.702 1 1 112.709 1 250.506C1 388.302 112.702 500 250.5 500Z" fill="#DCF4F7"/>
<path d="M335.768 406.55L320.291 359.333C318.766 331.306 314.936 303.45 308.87 276.047C308.87 267.053 307.706 242.134 306.531 234.761C306.588 234.342 306.588 233.922 306.531 233.502C313.185 212.009 330.91 159.835 332.345 158.043C333.79 156.239 331.271 150.841 327.035 150.841C316.823 153.12 307.65 158.723 300.951 166.765C302.849 127.997 307.345 93.6418 307.345 91.8384C307.345 90.0463 306.351 83.7514 302.849 83.7514C289.609 89.4905 278.967 99.9368 272.98 113.071L262.282 74.3034C262.282 72.1484 260.667 69.0859 258.238 69.0859C241.778 69.0859 238.898 100.3 238.898 106.776C238.898 109.736 243.213 134.474 247.89 160.742L248.613 164.519L250.228 173.514L253.109 189.336L255.447 200.406C256.521 205.975 257.515 211.011 258.419 215.242V216.864C245.45 207.019 231.634 198.353 217.129 190.958C213.085 190.958 141.576 226.935 130.878 240.421C128.709 240.421 120.982 242.939 120.982 245.548C120.982 248.157 158.216 314.803 165.141 321.109C172.066 327.404 216.045 363.915 216.045 363.915C217.943 372.013 232.244 417.881 231.882 425.798H339.812L335.768 406.55ZM300.951 167.037C300.951 172.515 300.42 194.02 300.239 204.807C300.058 192.035 300.42 179.173 300.951 167.037ZM249.505 271.998C249.505 273.438 210.746 301.862 204.533 301.862C198.331 301.862 166.937 253.918 151.472 246.546C166.576 249.869 208.589 228.557 210.385 228.557C212.181 228.557 243.936 251.038 245.461 252.478C247.687 258.773 249.053 265.34 249.505 271.998Z" fill="#FCCB5B"/>
<path d="M259.04 216.682C252.748 187.544 238.898 112.073 238.898 106.776C238.898 101.468 241.779 69.0859 258.238 69.0859C260.667 69.0859 262.101 72.1484 262.282 74.3034C262.463 76.4584 305.549 227.207 306.622 234.761C307.706 242.315 308.87 266.871 308.96 276.047" stroke="#FF7F9A" stroke-width="0.4" stroke-miterlimit="10"/>
<path d="M272.98 113.068C278.911 99.7753 289.597 89.1929 302.939 83.3857C306.441 83.3857 307.435 88.7847 307.435 91.4841C302.645 131.136 300.329 171.061 300.51 211.008" stroke="#FF7F9A" stroke-width="0.4" stroke-miterlimit="10"/>
<path d="M300.962 166.4C307.661 158.358 316.834 152.767 327.046 150.476C331.271 150.476 334.152 154.979 332.356 157.678C330.548 160.377 313.197 211.644 306.362 233.591" stroke="#FF7F9A" stroke-width="0.4" stroke-miterlimit="10"/>
<path d="M440 217.446V84.8133H476.177V188.432H530.053V217.446H440Z" fill="#FF92AF"/>
<path d="M580.854 84.8133V217.446H544.677V84.8133H580.854Z" fill="#FF92AF"/>
<path d="M669.833 126.261C669.486 121.943 667.859 118.576 664.953 116.158C662.09 113.74 657.73 112.531 651.874 112.531C648.144 112.531 645.086 112.985 642.7 113.891C640.358 114.755 638.622 115.942 637.495 117.453C636.367 118.964 635.781 120.691 635.738 122.634C635.651 124.232 635.933 125.678 636.584 126.973C637.278 128.225 638.362 129.37 639.837 130.406C641.312 131.399 643.199 132.305 645.498 133.126C647.797 133.946 650.53 134.68 653.696 135.328L664.628 137.659C672.002 139.213 678.313 141.264 683.562 143.811C688.811 146.359 693.105 149.359 696.445 152.813C699.785 156.224 702.236 160.067 703.798 164.341C705.403 168.615 706.227 173.278 706.27 178.33C706.227 187.051 704.036 194.434 699.699 200.478C695.361 206.523 689.158 211.121 681.089 214.272C673.065 217.424 663.413 219 652.135 219C640.553 219 630.446 217.295 621.813 213.884C613.225 210.473 606.544 205.227 601.773 198.147C597.045 191.023 594.659 181.913 594.615 170.817H628.971C629.188 174.876 630.207 178.286 632.029 181.05C633.851 183.813 636.41 185.907 639.707 187.331C643.047 188.756 647.016 189.469 651.614 189.469C655.475 189.469 658.706 188.994 661.309 188.044C663.912 187.094 665.886 185.777 667.23 184.093C668.575 182.41 669.269 180.488 669.312 178.33C669.269 176.3 668.597 174.53 667.295 173.019C666.037 171.465 663.955 170.083 661.049 168.874C658.143 167.622 654.217 166.457 649.272 165.377L635.998 162.528C624.199 159.98 614.895 155.728 608.084 149.77C601.317 143.768 597.956 135.587 597.999 125.225C597.956 116.806 600.211 109.444 604.766 103.141C609.364 96.7943 615.719 91.8508 623.831 88.3105C631.986 84.7702 641.334 83 651.874 83C662.632 83 671.937 84.7917 679.788 88.3752C687.64 91.9587 693.691 97.0102 697.942 103.53C702.236 110.006 704.405 117.583 704.449 126.261H669.833Z" fill="#FF92AF"/>
<path d="M716.388 113.827V84.8133H832.208V113.827H792.126V217.446H756.47V113.827H716.388Z" fill="#FF92AF"/>
<path d="M863.619 217.446H824.578L868.564 84.8133H918.015L962 217.446H922.96L893.81 121.339H892.769L863.619 217.446ZM856.331 165.118H929.727V192.059H856.331V165.118Z" fill="#FF92AF"/>
<path d="M476.139 276V409H440V276H476.139Z" fill="#FF92AF"/>
<path d="M544.485 409H493.266V276H543.965C557.658 276 569.488 278.663 579.454 283.988C589.464 289.27 597.177 296.889 602.593 306.847C608.053 316.762 610.783 328.646 610.783 342.5C610.783 356.354 608.075 368.26 602.658 378.218C597.242 388.132 589.572 395.752 579.649 401.077C569.726 406.359 558.004 409 544.485 409ZM529.405 378.348H543.185C549.771 378.348 555.383 377.287 560.019 375.166C564.699 373.044 568.253 369.386 570.679 364.19C573.149 358.995 574.384 351.765 574.384 342.5C574.384 333.235 573.127 326.005 570.614 320.81C568.144 315.614 564.504 311.956 559.694 309.834C554.928 307.713 549.078 306.652 542.145 306.652H529.405V378.348Z" fill="#FF92AF"/>
<path d="M627.504 409V276H723.441V305.094H663.643V327.953H718.502V357.047H663.643V379.906H723.181V409H627.504Z" fill="#FF92AF"/>
<path d="M775.944 409H736.945L780.884 276H830.283L874.221 409H835.222L806.103 312.627H805.063L775.944 409ZM768.664 356.527H841.982V383.543H768.664V356.527Z" fill="#FF92AF"/>
<path d="M887.042 409V276H923.181V379.906H977V409H887.042Z" fill="#FF92AF"/>
</svg>
