<svg width="500" height="500" viewBox="0 0 500 500" fill="none" xmlns="http://www.w3.org/2000/svg">
<path d="M249.5 499C387.298 499 499 387.302 499 249.506C499 111.709 387.298 0 249.5 0C111.702 0 0 111.709 0 249.506C0 387.302 111.702 499 249.5 499Z" fill="#DCF4F7"/>
<path d="M334.768 405.55L319.291 358.333C317.766 330.306 313.936 302.45 307.87 275.047C307.87 266.053 306.706 241.134 305.531 233.761C305.588 233.342 305.588 232.922 305.531 232.502C312.185 211.009 329.91 158.835 331.345 157.043C332.79 155.239 330.271 149.841 326.035 149.841C315.823 152.12 306.65 157.723 299.951 165.765C301.849 126.997 306.345 92.6418 306.345 90.8384C306.345 89.0463 305.351 82.7514 301.849 82.7514C288.609 88.4905 277.967 98.9368 271.98 112.071L261.282 73.3034C261.282 71.1484 259.667 68.0859 257.238 68.0859C240.778 68.0859 237.898 99.2996 237.898 105.776C237.898 108.736 242.213 133.474 246.89 159.742L247.613 163.519L249.228 172.514L252.109 188.336L254.447 199.406C255.521 204.975 256.515 210.011 257.419 214.242V215.864C244.45 206.019 230.634 197.353 216.129 189.958C212.085 189.958 140.576 225.935 129.878 239.421C127.709 239.421 119.982 241.939 119.982 244.548C119.982 247.157 157.216 313.803 164.141 320.109C171.066 326.404 215.045 362.915 215.045 362.915C216.943 371.013 231.244 416.881 230.882 424.798H338.812L334.768 405.55ZM299.951 166.037C299.951 171.515 299.42 193.02 299.239 203.807C299.058 191.035 299.42 178.173 299.951 166.037ZM248.505 270.998C248.505 272.438 209.746 300.862 203.533 300.862C197.331 300.862 165.937 252.918 150.472 245.546C165.576 248.869 207.589 227.557 209.385 227.557C211.181 227.557 242.936 250.038 244.461 251.478C246.687 257.773 248.053 264.34 248.505 270.998Z" fill="#FCCB5B"/>
<path d="M258.04 215.682C251.748 186.544 237.898 111.073 237.898 105.776C237.898 100.468 240.779 68.0859 257.238 68.0859C259.667 68.0859 261.101 71.1484 261.282 73.3034C261.463 75.4584 304.549 226.207 305.622 233.761C306.706 241.315 307.87 265.871 307.96 275.047" stroke="#FF7F9A" stroke-width="0.4" stroke-miterlimit="10"/>
<path d="M271.98 112.068C277.911 98.7753 288.597 88.1929 301.939 82.3857C305.441 82.3857 306.435 87.7847 306.435 90.4841C301.645 130.136 299.329 170.061 299.51 210.008" stroke="#FF7F9A" stroke-width="0.4" stroke-miterlimit="10"/>
<path d="M299.962 165.4C306.661 157.358 315.834 151.767 326.046 149.476C330.271 149.476 333.152 153.979 331.356 156.678C329.548 159.377 312.197 210.644 305.362 232.591" stroke="#FF7F9A" stroke-width="0.4" stroke-miterlimit="10"/>
</svg>
